HIERARCHY
ROOT Hips
{
  OFFSET 62.8137 94.6582 17.6488
  CHANNELS 6 Xposition Yposition Zposition Zrotation Xrotation Yrotation
  JOINT ToSpine
  {
    OFFSET -2.69724 7.43032 -0.144315
    CHANNELS 3 Zrotation Xrotation Yrotation
    JOINT Spine
    {
      OFFSET -0.0310711 10.7595 1.96963
      CHANNELS 3 Zrotation Xrotation Yrotation
      JOINT Spine1
      {
        OFFSET 13.1342 3.43533 0.764692
        CHANNELS 3 Zrotation Xrotation Yrotation
        JOINT Neck
        {
          OFFSET 29.8703 7.82586 -0.130764
          CHANNELS 3 Zrotation Xrotation Yrotation
          JOINT Head
          {
            OFFSET 9.52751 0.295786 -0.907742
            CHANNELS 3 Zrotation Xrotation Yrotation
            End Site
            {
              OFFSET 16.4037 0.713936 2.7358
            }
          }
        }
        JOINT LeftShoulder
        {
          OFFSET 27.5574 4.95586 2.47156
          CHANNELS 3 Zrotation Xrotation Yrotation
          JOINT LeftArm
          {
            OFFSET 1.20734 -0.998971 20.1238
            CHANNELS 3 Zrotation Xrotation Yrotation
            JOINT LeftForeArm
            {
              OFFSET 26.8049 -0.0536703 -0.155908
              CHANNELS 3 Zrotation Xrotation Yrotation
              JOINT LeftHand
              {
                OFFSET 26.6817 0 0.320147
                CHANNELS 3 Zrotation Xrotation Yrotation
                End Site
                {
                  OFFSET 18.6119 0 0.382219
                }
              }
            }
          }
        }
        JOINT RightShoulder
        {
          OFFSET 27.5927 4.71444 -2.65209
          CHANNELS 3 Zrotation Xrotation Yrotation
          JOINT RightArm
          {
            OFFSET 2.83739 -1.17114 -18.7564
            CHANNELS 3 Zrotation Xrotation Yrotation
            JOINT RightForeArm
            {
              OFFSET 28.839 -0.0548439 1.22491
              CHANNELS 3 Zrotation Xrotation Yrotation
              JOINT RightHand
              {
                OFFSET 26.5114 0 -0.101894
                CHANNELS 3 Zrotation Xrotation Yrotation
                End Site
                {
                  OFFSET 18.2168 0 0
                }
              }
            }
          }
        }
      }
    }
  }
  JOINT LeftUpLeg
  {
    OFFSET -4.76168 -1.9167 -10.2353
    CHANNELS 3 Zrotation Xrotation Yrotation
    JOINT LeftLeg
    {
      OFFSET 2.55951 -42.0585 -8.02213
      CHANNELS 3 Zrotation Xrotation Yrotation
      JOINT LeftFoot
      {
        OFFSET 3.16357 -42.5282 -3.95426
        CHANNELS 3 Zrotation Xrotation Yrotation
        JOINT LeftToeBase
        {
          OFFSET 0.346054 -6.02161 12.8035
          CHANNELS 3 Zrotation Xrotation Yrotation
          End Site
          {
            OFFSET 0.134235 -1.35082 5.13018
          }
        }
      }
    }
  }
  JOINT RightUpLeg
  {
    OFFSET -4.94151 -1.41743 10.6446
    CHANNELS 3 Zrotation Xrotation Yrotation
    JOINT RightLeg
    {
      OFFSET -2.56294 -42.0364 -7.94377
      CHANNELS 3 Zrotation Xrotation Yrotation
      JOINT RightFoot
      {
        OFFSET -3.0952 -42.555 -4.02241
        CHANNELS 3 Zrotation Xrotation Yrotation
        JOINT RightToeBase
        {
          OFFSET -0.0828122 -6.13587 12.8035
          CHANNELS 3 Zrotation Xrotation Yrotation
          End Site
          {
            OFFSET -0.131328 -1.35082 5.13018
          }
        }
      }
    }
  }
}
MOTION
Frames:	15
Frame Time:	0.0333333
68.1665 93.876 27.4328 64.5835 -58.472 -17.5583 -70.1915 0 88.8779 47.336 65.0106 28.018 4.58394 19.1995 -0.595132 -130.696 21.081 153.897 -151.169 63.9559 174.816 -1.97678 -22.8928 -34.1173 -68.5702 27.7671 -131.157 22.6848 11.7106 -63.537 0.420957 0.000575395 0.35866 -0.976075 5.21198 33.7959 -86.5021 -47.0598 117.798 38.9439 13.0992 105.389 0.58676 0.000331183 0.0646652 -43.2861 4.81412 109.97 -2.91322 47.2843 -2.78224 8.13183 -17.1417 -1.27177 0.647644 -1.8621 0.977762 -62.3532 3.01657 83.8164 7.57871 69.8673 -5.81892 -20.3742 13.745 4.13167 -0.0414883 -27.361 -40.6694 
69.1553 93.9332 24.669 48.2324 -70.186 -37.6834 -70.1915 0 88.8779 54.446 66.4782 24.6592 2.9178 18.8928 1.56988 -134.843 22.1947 161.635 -151.667 62.8214 174.8 -1.78436 -22.6372 -33.0273 -81.6641 28.8741 -126.513 19.767 9.31286 -65.2032 0.420957 0.000575395 0.35866 -1.05135 5.95681 32.3929 -72.0512 -42.697 137.911 36.3794 11.4928 104.858 0.58676 0.000331183 0.0646652 -43.5746 5.10886 115.882 -2.17956 44.8444 0.729925 6.11835 -16.0016 -1.29462 -0.17966 -2.49184 7.53943 -61.7786 -0.193768 90.2898 6.17387 68.5382 -7.38703 -21.846 13.3297 4.45211 0.436551 -26.4584 -37.5276 
70.5725 94.2546 22.039 2.16903 -76.9356 -85.8658 -70.1915 0 88.8779 65.4989 68.668 18.6506 1.99534 19.3466 2.61127 -136.476 22.1282 168.249 -150.215 61.2762 175.651 -1.49709 -22.6081 -30.6388 -95.4372 28.8193 -119.158 17.1715 7.19792 -67.3764 0.420957 0.000575395 0.35866 -1.05224 6.41594 30.9965 -64.8041 -36.9052 150.415 32.6334 9.29286 103.879 0.58676 0.000331183 0.0646652 -44.0612 7.35614 121.399 -0.962774 42.1649 7.66841 4.51846 -15.8102 -1.30127 -1.13896 -0.0226024 5.70702 -59.5783 -3.76842 93.4273 5.1493 66.3013 -7.34268 -21.3994 11.8709 4.18731 0.880044 -24.8808 -36.2888 
72.0482 94.9399 19.7738 -43.7894 -71.0688 -133.432 -70.1915 0 88.8779 76.2795 70.2328 12.233 1.86647 20.0464 2.17107 -134.664 20.6846 171.797 -143.249 58.1932 173.447 -1.16706 -22.794 -27.5195 -107.98 25.7088 -109.413 17.5464 6.60197 -69.4466 0.420957 0.000575395 0.35866 -0.874304 6.01181 29.2209 -59.5263 -32.4967 159.738 26.9954 6.78814 102.786 0.58676 0.000331183 0.0646652 -44.2517 10.0126 125.518 0.0820247 39.8065 13.4249 2.99518 -13.5912 -1.20001 -1.03339 0.37932 4.2125 -56.4976 -7.57091 93.0876 3.92318 61.9274 -6.0292 -21.5713 13.0058 4.35544 1.3844 -23.3865 -32.964 
73.0921 95.6943 18.0871 -59.7469 -60.6925 -150.328 -70.1915 0 88.8779 82.9108 70.523 8.6275 3.12092 19.8875 2.29423 -134.084 20.3687 179.516 -142.756 56.6246 176.672 -0.923802 -22.2499 -26.2088 -117.501 17.6839 -99.8201 17.5389 6.1435 -70.7122 0.420957 0.000575395 0.35866 -0.773114 6.65497 25.915 -54.8455 -29.8368 167.073 22.4676 4.99899 101.619 0.58676 0.000331183 0.0646652 -43.017 14.7791 127.239 0.595744 41.8988 17.0021 2.77567 -8.98925 -0.937336 0.487741 -1.50002 1.03718 -54.6659 -9.91618 90.0558 3.00113 54.7404 -0.671661 -21.3573 18.8447 4.88397 1.38803 -25.4247 -28.5306 
73.4348 95.9031 16.3838 -64.7594 -50.6798 -156.219 -70.1915 0 88.8779 83.8534 70.6654 7.83041 4.67115 19.5733 3.66179 -134.238 19.3669 -174.995 -142.32 54.793 179.635 -0.71608 -21.6206 -25.2882 -122.887 8.63228 -92.4817 15.0632 5.35449 -70.3178 0.420957 0.000575395 0.35866 -0.735159 7.42964 23.8892 -51.9625 -27.5606 170.254 20.3373 4.54498 101.782 0.58676 0.000331183 0.0646652 -37.468 20.9181 123.229 -0.116319 50.4568 17.0643 3.2537 -2.3237 -0.635169 1.36745 -3.36701 1.08479 -53.5148 -10.4481 86.7188 3.36877 46.9317 4.81614 -19.4068 22.3132 4.63624 -0.160138 -34.7114 -29.2457 
73.3976 95.2749 14.4559 -65.1906 -42.8315 -158.718 -70.1915 0 88.8779 81.763 71.2232 7.39796 4.54105 19.7517 5.19067 -133.564 17.6472 -174.697 -139.987 52.6919 179.939 -0.344153 -21.202 -22.2353 -124.971 3.06955 -87.815 14.7272 5.67557 -68.8511 0.420957 0.000575395 0.35866 -0.710957 7.03312 24.241 -50.2772 -25.6993 169.536 16.7606 4.09873 103.046 0.58676 0.000331183 0.0646652 -29.7797 23.8824 114.328 -2.3626 58.7203 9.7634 3.20113 1.15549 -0.453438 1.50256 -3.85262 1.53695 -51.6794 -10.9367 85.3019 1.70073 41.1827 0.944836 -20.1728 15.3158 4.23654 2.64031 -37.3437 -12.0736 
73.616 94.5174 13.251 -65.3945 -37.6347 -160.605 -70.1915 0 88.8779 82.701 71.1706 4.92852 3.99298 19.5301 5.58519 -134.86 15.6813 -174.6 -138.788 50.4689 179.144 -0.248831 -20.9548 -21.6169 -127.083 -2.58909 -84.5636 15.7639 6.78228 -66.7852 0.420957 0.000575395 0.35866 -0.700715 6.89368 24.3503 -48.8308 -24.616 167.932 13.5536 3.51879 103.954 0.58676 0.000331183 0.0646652 -26.5173 21.3632 103.53 -4.98386 58.8205 -3.02444 -2.48743 -0.878548 0.14772 4.42141 -10.6628 6.40279 -51.4426 -11.5661 84.5075 1.83852 36.9174 10.1516 -17.0126 12.5309 3.23712 1.59939 -38.3701 -17.2049 
74.3738 93.178 13.0238 -66.436 -31.9141 -162.991 -70.1915 0 88.8779 85.3419 71.2446 4.38827 4.34177 20.0662 3.88123 -137.074 14.4953 -171.198 -140.591 49.2084 -179.403 -0.595963 -21.1018 -24.8932 -130.254 -8.92822 -82.5548 13.8006 6.43743 -65.0027 0.420957 0.000575395 0.35866 -0.846781 7.03652 26.2481 -49.4517 -21.4873 164.752 13.1502 3.3485 103.706 0.58676 0.000331183 0.0646652 -27.3901 18.9853 96.8456 -4.92418 55.6582 -7.02663 -5.59063 -2.05807 0.371656 7.67841 -16.5738 8.83246 -49.009 -12.8912 81.7905 1.20869 36.8812 23.8735 -15.2131 8.14911 2.55772 -0.269089 -35.7564 -28.9508 
75.077 92.0151 12.7987 -68.4794 -24.9293 -166.321 -70.1915 0 88.8779 92.0228 72.0629 -0.529527 3.52761 21.0942 3.20953 -138.566 13.2772 -166.562 -141.973 47.615 -178.136 -0.823116 -20.2628 -28.6638 -135.029 -11.8113 -79.2048 12.4051 5.62972 -65.5119 0.420957 0.000575395 0.35866 -1.07712 7.41751 28.7077 -49.7168 -16.9849 161.793 10.8439 2.6251 103.11 0.58676 0.000331183 0.0646652 -30.8296 19.259 95.6409 -4.36093 53.6416 -6.55301 -5.62717 -5.40128 -0.0412284 6.24407 -14.0864 7.91752 -46.7589 -11.878 84.1858 1.03109 36.2664 26.6585 -20.0316 8.38739 3.53388 -1.06009 -38.0916 -30.9203 
75.3776 90.7886 12.8972 -70.3453 -19.0402 -168.835 -70.1915 0 88.8779 96.9936 72.3219 -3.83184 3.15785 21.8873 1.79548 -138.464 11.0291 -166.476 -140.571 44.6814 179.817 -0.609318 -18.5822 -29.9879 -140.276 -11.3972 -75.5975 14.0005 5.76313 -67.5587 0.420957 0.000575395 0.35866 -1.42745 7.43861 33.5274 -49.3714 -12.2388 157.702 8.87982 2.13377 103.035 0.58676 0.000331183 0.0646652 -32.7427 20.8981 97.0932 -4.08603 55.4469 -2.1019 -4.10955 -10.1106 -0.729002 5.37102 -12.4265 6.76779 -44.4364 -9.23852 90.4712 1.83096 38.304 23.5951 -21.3403 4.49506 3.39999 -0.919141 -35.6165 -32.7854 
75.7059 89.8226 12.6076 -71.4778 -16.447 -170.879 -70.1915 0 88.8779 98.3053 71.7699 -5.78855 3.73354 21.3855 1.54513 -139.984 9.03585 -164.851 -141.782 42.6458 179.726 -0.537301 -17.5544 -31.9809 -143.12 -12.6457 -72.8128 13.724 4.92009 -70.1101 0.420957 0.000575395 0.35866 -1.71054 7.65047 36.6462 -48.4965 -10.7853 155.027 9.16039 2.16635 102.846 0.58676 0.000331183 0.0646652 -32.9649 21.6727 98.6066 -4.1622 57.8005 0.727934 -2.76426 -10.5243 -0.823386 5.40872 -12.4598 6.33531 -41.6014 -7.67623 96.612 4.27301 42.6578 18.7597 -23.4696 3.22391 3.59939 -0.89511 -37.237 -30.9284 
75.872 88.9621 12.5873 -72.7968 -15.4848 -171.774 -70.1915 0 88.8779 102.756 71.1313 -9.99721 3.19286 20.9536 1.63807 -139.576 8.36249 -164.035 -141.686 41.7001 179.727 -0.73444 -17.8787 -33.6841 -144.118 -13.6077 -70.7707 13.7652 4.82253 -70.5125 0.420957 0.000575395 0.35866 -1.75202 7.59865 37.3883 -46.4333 -12.729 152.688 12.1909 2.94556 103.052 0.58676 0.000331183 0.0646652 -33.191 22.4975 98.9492 -4.76541 60.277 0.855279 -2.61634 -11.0594 -0.88229 6.13153 -14.0227 9.52866 -40.4455 -8.73873 95.7581 4.54616 45.8268 20.1402 -25.547 2.45719 3.82813 -0.945233 -38.814 -29.8646 
75.5364 89.0494 12.5584 -73.9462 -15.2569 -172.592 -70.1915 0 88.8779 100.123 71.0053 -6.82629 4.67634 20.8945 0.646814 -138.063 8.05151 -164.668 -140.822 41.0088 179.294 -0.835517 -18.0832 -34.3916 -144.065 -13.108 -69.8804 14.1049 5.09082 -70.0069 0.420957 0.000575395 0.35866 -1.78567 7.54223 38.0192 -45.0189 -14.9537 150.969 12.0301 2.99238 103.421 0.58676 0.000331183 0.0646652 -35.5169 23.3103 100.997 -4.82699 59.6032 -0.42375 -1.82256 -11.8077 -0.981852 5.90642 -13.7116 10.15 -41.6782 -9.51178 95.0691 4.77175 45.8333 22.7836 -26.356 3.38684 4.08697 -1.78495 -39.3571 -33.2931 
75.2484 89.0262 12.3829 -74.7642 -15.0615 -173.38 -70.1915 0 88.8779 97.8322 71.1998 -5.05214 5.22401 20.9364 0.982266 -137.177 7.86341 -165.221 -140.934 40.6885 178.975 -0.769505 -17.8491 -34.2653 -143.391 -12.135 -69.0084 14.4951 5.32844 -69.6985 0.420957 0.000575395 0.35866 -1.73964 7.37797 37.9597 -43.7276 -16.2195 150.032 12.2859 3.17624 103.906 0.58676 0.000331183 0.0646652 -37.0884 23.6676 102.221 -4.8739 59.271 -1.20081 -1.69742 -11.8682 -0.990401 6.0296 -13.9893 11.0194 -42.0584 -9.92639 95.2193 4.89775 46.5333 22.9456 -26.1114 2.58288 3.93143 -1.50788 -39.0917 -32.2601 
